<?xml version="1.0" standalone="no"?>
<!DOCTYPE svg PUBLIC "-//W3C//DTD SVG 20010904//EN"
 "http://www.w3.org/TR/2001/REC-SVG-20010904/DTD/svg10.dtd">
<svg version="1.0" xmlns="http://www.w3.org/2000/svg"
 width="800.000000pt" height="740.000000pt" viewBox="0 0 800.000000 740.000000"
 preserveAspectRatio="xMidYMid meet">

<g transform="translate(0.000000,740.000000) scale(0.100000,-0.100000)"
fill="#000000" stroke="none">
<path d="M7416 7379 c-80 -16 -185 -71 -270 -140 -43 -35 -134 -107 -201 -159
-67 -52 -250 -195 -406 -317 -466 -364 -559 -437 -892 -696 l-317 -248 -38 10
c-20 6 -89 21 -152 35 -458 97 -800 173 -805 178 -2 2 82 131 187 288 105 157
199 303 209 325 20 44 24 109 9 149 -5 14 -23 38 -40 55 -87 83 -212 101 -310
44 -57 -33 -122 -95 -181 -173 -18 -25 -56 -69 -84 -99 -27 -29 -55 -59 -60
-65 -67 -74 -253 -276 -303 -329 l-65 -68 -311 41 c-171 22 -414 54 -541 71
-126 16 -233 31 -238 32 -4 1 78 117 183 257 105 140 201 278 215 307 50 103
25 213 -64 281 -35 27 -51 32 -94 32 -72 0 -114 -14 -184 -59 -68 -44 -103
-77 -252 -241 -58 -63 -159 -173 -226 -245 -67 -71 -143 -153 -169 -182 l-47
-51 -102 -7 c-56 -3 -401 -10 -767 -15 -694 -8 -740 -11 -805 -54 -35 -23 -31
-49 15 -89 37 -32 562 -302 840 -432 69 -32 206 -96 305 -143 435 -203 1550
-709 2045 -927 135 -60 247 -110 250 -113 3 -2 -53 -60 -125 -129 -71 -69
-195 -189 -275 -267 -80 -78 -287 -278 -460 -446 -173 -168 -380 -368 -460
-446 -80 -77 -221 -214 -315 -305 -165 -159 -334 -323 -618 -600 -76 -74 -142
-135 -147 -137 -5 -2 -101 18 -212 43 -747 171 -746 171 -828 134 -59 -27
-249 -220 -281 -286 -32 -64 -32 -151 -1 -210 31 -60 124 -147 217 -203 44
-26 174 -95 290 -152 295 -147 400 -214 501 -319 199 -209 390 -541 494 -864
29 -89 58 -127 116 -155 37 -18 57 -22 103 -17 75 6 137 39 238 125 145 123
227 237 258 360 l16 63 -91 217 c-51 119 -106 248 -122 285 -16 38 -28 74 -26
81 2 7 91 90 198 185 107 95 211 187 230 205 19 17 159 142 310 276 151 134
291 259 310 276 19 17 166 147 325 289 160 142 308 274 330 294 283 260 938
831 945 825 4 -5 45 -94 90 -199 45 -104 134 -309 197 -455 64 -146 135 -310
158 -365 62 -146 229 -531 258 -595 13 -30 87 -199 162 -375 189 -438 183
-423 365 -845 156 -360 235 -542 334 -770 25 -58 55 -113 67 -122 23 -20 80
-24 109 -8 41 22 90 142 109 270 20 130 31 374 22 471 -6 52 -19 213 -30 359
-12 146 -23 277 -26 291 -4 24 9 36 138 130 78 56 230 166 337 244 107 78 238
172 291 208 162 112 212 181 212 293 0 50 -7 73 -33 123 -76 143 -181 166
-356 78 -52 -26 -662 -232 -669 -226 -4 4 -20 400 -31 761 l-7 216 369 245
c203 134 383 251 401 260 17 9 58 42 91 72 104 96 126 190 69 302 -34 66 -69
99 -133 123 -65 24 -172 27 -230 6 -22 -7 -182 -84 -358 -170 -175 -86 -321
-154 -324 -151 -3 3 -7 16 -9 28 -1 12 -9 63 -17 112 -15 90 -59 366 -96 610
-21 136 -37 232 -46 276 -4 24 25 53 307 310 172 156 421 383 553 503 133 121
399 362 591 537 283 257 355 327 374 366 71 146 102 315 84 456 -10 73 -43
190 -58 205 -2 3 -42 16 -87 30 -69 20 -108 25 -233 28 -82 1 -172 -2 -199 -7z"/>
</g>
</svg>
